<svg width="668" height="720" viewBox="0 0 668 720" fill="none" xmlns="http://www.w3.org/2000/svg">
<g clip-path="url(#clip0_2_17)">
<path fill-rule="evenodd" clip-rule="evenodd" d="M333.065 665.587C234.757 666.833 125.181 645.855 72.1358 563.155C20.74 483.027 64.8814 383.323 93.8726 292.679C121.279 206.989 147.979 114.527 228.501 74.2605C314.856 31.0778 419.632 40.0513 503.544 87.8171C586.132 134.83 639.152 220.691 651.208 314.881C662.669 404.422 624.265 490.044 563.59 556.928C503.563 623.099 422.453 664.454 333.065 665.587Z" fill="#A5DEFF"/>
<g clip-path="url(#clip1_2_17)">
<path d="M432.677 469.008C475.944 464.061 546.917 477.541 486.162 562.921C425.855 647.673 414.179 700.963 446.557 690.478C446.79 690.391 447.033 690.31 447.284 690.234C447.039 690.319 446.797 690.4 446.557 690.478C437.557 693.841 441.673 705.978 437.023 710.9C400.984 716.63 400.313 668.192 480.806 561.929C500.178 533.677 513.117 478.665 436.742 481.628L432.677 469.008Z" fill="#FFD500"/>
<path d="M427.839 452.945C476.727 441.778 530.059 437.389 475.722 538.571C421.942 638.716 478.99 631.224 515.256 614.581C515.599 614.403 515.972 614.23 516.376 614.061C516.005 614.235 515.631 614.409 515.256 614.581C506.326 619.194 517.142 626.522 512.743 632.437C472.315 643.493 407.042 640.124 469.377 538.205C486.516 504.821 519.059 451.05 431.706 464.474L427.839 452.945Z" fill="#005BBB"/>
<ellipse cx="183.454" cy="178.105" rx="13.0738" ry="20.5445" transform="rotate(-5.63119 183.454 178.105)" fill="#0D070C"/>
<ellipse rx="13.0738" ry="20.5445" transform="matrix(-0.910908 0.412609 0.412609 0.910908 316.201 138.834)" fill="#0D070C"/>
<path fill-rule="evenodd" clip-rule="evenodd" d="M231.969 88.3394C207.094 95.327 161.951 119.282 180.382 159.202C192.737 185.963 186.278 198.024 179.296 211.061C173.259 222.333 166.83 234.336 171.837 257.204C176.384 277.974 185.842 290.826 195.282 303.653C208.254 321.28 221.191 338.861 221.306 376.881C221.466 429.431 260.095 568.545 279.389 631.534L370.944 607.002L231.969 88.3394ZM232.211 89.2414C257.248 82.8552 308.32 81.0295 312.319 124.817C314.986 154.025 330.398 162.473 346.52 171.311C360.609 179.035 375.241 187.055 382.379 209.49C389.058 230.479 384.324 245.967 379.579 261.493C373.449 281.551 367.299 301.671 385.716 333.794C411.853 379.384 447.957 519.175 462.741 583.371L371.186 607.904L232.211 89.2414Z" fill="white"/>
<ellipse rx="31.5961" ry="44.505" transform="matrix(-0.761754 0.647867 0.647867 0.761754 205.227 272.04)" fill="url(#paint0_radial_2_17)"/>
<ellipse rx="31.5961" ry="44.505" transform="matrix(-0.952397 -0.30486 -0.30486 0.952397 353.01 234.793)" fill="url(#paint1_radial_2_17)"/>
<path d="M435.705 476.832C377.172 523.231 287.572 536.157 250.692 530.628L256.95 552.252C341.794 570.362 414.963 523.429 441.884 498.278L435.705 476.832Z" fill="#005BBB"/>
<path d="M441.884 497.551C372.714 556.319 293.684 557.043 256.697 551.943L261.96 568.794C347.154 585.914 421.647 547.002 448.063 521.541L441.884 497.551Z" fill="#FFD500"/>
<ellipse opacity="0.5" cx="313.679" cy="132.453" rx="5.86084" ry="9.20989" transform="rotate(9.05007 313.679 132.453)" fill="white"/>
<ellipse opacity="0.5" cx="180.643" cy="170.255" rx="5.86084" ry="9.20989" transform="rotate(9.05007 180.643 170.255)" fill="white"/>
<path d="M354.873 567.081C194.646 598.273 229 815.428 266.205 920.107C453.599 981.407 803.303 1043.82 702.971 803.076C602.64 562.331 470.765 534.272 417.369 550.335L354.873 567.081Z" fill="white"/>
<path d="M208.679 205.277C188.97 143.269 246.386 116.651 246.339 117.495C311.241 117.495 320.296 173.069 320.296 181.653C320.296 205.277 362.24 214.922 357.422 240.83C352.604 266.739 365.571 314.539 365.494 350.331C365.446 372.265 359.096 381.97 353.703 385.453C355.285 385.044 354.647 385.302 353.089 385.825C351.67 386.631 350.34 387.009 349.236 387.074C350.671 386.619 352.075 386.166 353.089 385.825C353.292 385.71 353.497 385.586 353.703 385.453C351.623 385.99 345.707 387.677 332.999 391.425C297.16 401.995 282.216 355.243 236.595 309.46C190.973 263.677 233.314 282.786 208.679 205.277Z" fill="#FF6B0A"/>
<path d="M326.836 368.423C297.295 373.632 270.805 312.056 261.253 280.617C277.946 271.955 314.936 256.178 329.356 262.369C347.381 270.107 363.763 361.913 326.836 368.423Z" fill="#1F0C02"/>
<path d="M330.524 358.734C350.053 350.795 331.827 308.273 320.273 288.005L281.035 298.519C289.395 321.899 310.995 366.674 330.524 358.734Z" fill="#724B3B"/>
<path d="M324.046 343.505C327.418 339.405 309.597 297.271 300.265 276.717L291.891 279.948C301.205 302.842 320.674 347.604 324.046 343.505Z" fill="#6B3B28"/>
<path d="M243.002 259.404C251.367 212.691 233.838 192.735 224.028 188.596C243.605 140.425 284.803 154.426 302.955 167.447C290.83 214.201 299.267 177.136 330.949 235.839C356.294 282.801 327.757 308.719 310.321 315.808C284.396 316.471 234.636 306.118 243.002 259.404Z" fill="#ED5E00"/>
<path d="M339.021 256.11C276.016 205.705 254.23 260.784 251.213 294.624C258.806 306.124 281.49 326.439 311.482 315.696C341.474 304.953 342.338 271.496 339.021 256.11Z" fill="#FF8E3D"/>
<path d="M285.359 262.014C283.421 256.804 278.962 247.402 276.636 251.473C274.309 255.544 281.482 260.196 285.359 262.014Z" fill="#FD7411"/>
<path d="M295.531 259.307C293.757 254.039 291.301 243.927 295.672 245.625C300.042 247.323 297.399 255.454 295.531 259.307Z" fill="#FD7411"/>
<path d="M255.918 41.0159L272.275 85.7244C253.664 116.548 204.909 120.134 182.858 118.074L166.865 72.2755L255.918 41.0159Z" fill="#373500"/>
<path d="M272.275 85.7241C273.123 112.016 255.264 153.187 182.858 117.711L272.275 85.7241Z" fill="#373500"/>
<ellipse cx="211.5" cy="56.6249" rx="47.2695" ry="8.14809" transform="rotate(-19.0312 211.5 56.6249)" fill="#373500"/>
<path d="M255.918 41.0159L272.275 85.7244C253.664 116.548 204.909 120.134 182.858 118.074L166.865 72.2755C166.865 72.2755 174.556 71.3111 179.223 69.7311C184.815 67.8379 192.672 62.8249 192.672 62.8249L231.201 94.0845V47.5586C231.201 47.5586 239.584 48.9458 244.65 47.5586C249.558 46.2146 255.918 41.0159 255.918 41.0159Z" fill="#4B4800"/>
<path d="M204.575 61.3972C204.854 61.4485 205.084 61.4772 205.3 61.5434C207.098 62.0397 208.42 62.9839 209.425 64.7335C209.85 65.4747 210.204 66.2815 210.583 67.0451C210.916 67.7222 211.245 68.3862 211.59 69.0577C211.681 69.2308 211.687 69.321 211.512 69.4371C211.132 69.6673 210.874 70.0406 210.872 70.5536C210.863 71.0082 211.058 71.3487 211.384 71.5636C211.715 71.7917 212.077 71.7718 212.43 71.6167C212.604 71.5325 212.69 71.3974 212.715 71.1683C212.928 69.4195 212.8 67.7114 212.378 66.0214C212.024 64.6246 211.438 63.3401 210.904 62.0462C210.602 61.3072 210.319 60.5437 209.994 59.8159C209.795 59.3533 209.641 58.9001 209.574 58.3889C209.508 57.8777 209.537 57.3668 209.685 56.8448C210.119 57.0543 210.472 57.3801 210.724 57.8015C210.955 58.2022 211.149 58.6517 211.322 59.0805C211.509 59.5487 211.639 60.045 211.798 60.5113C212.217 61.7523 212.625 62.9989 213.079 64.223C213.848 66.2576 215.008 67.9474 216.574 69.2548C216.778 69.4356 216.965 69.4228 217.175 69.2899C217.712 68.9679 217.949 68.2789 217.73 67.6866C217.524 67.1338 216.91 66.8412 216.355 67.0786C216.153 67.1608 216.112 67.0874 216.067 66.8919C215.815 65.8805 215.546 64.8616 215.282 63.8559C214.993 62.7072 214.646 61.5867 214.659 60.3692C214.678 58.761 215.107 57.4824 215.911 56.1465C215.972 56.0545 216.034 55.9626 216.121 55.8275C216.165 55.946 216.194 56.025 216.223 56.104C218.113 61.1979 219.925 66.0813 221.815 71.1753C221.922 71.4648 221.922 71.4648 221.678 71.5827C220.762 72.0259 219.834 72.4748 218.918 72.9181C218.756 72.9966 218.706 73.0829 218.739 73.284C218.99 74.8083 218.793 76.2696 218.107 77.6265C217.966 77.9118 217.869 78.2385 217.749 78.5445C216.974 78.1125 216.067 77.9921 215.328 77.4024C214.725 76.9182 214.176 76.3609 213.765 75.6592C213.667 75.5049 213.578 75.4859 213.439 75.5532C212.499 76.0077 211.571 76.4566 210.632 76.911C210.469 76.9896 210.385 76.9838 210.307 76.7732C208.407 71.6529 206.581 66.73 204.681 61.6097C204.649 61.5946 204.629 61.542 204.575 61.3972ZM206.465 63.2464C206.447 63.2708 206.412 63.2876 206.394 63.312C206.428 63.4041 206.462 63.4963 206.496 63.5884C207.409 66.0498 208.249 68.3138 209.163 70.7752C209.314 71.1833 209.314 71.1833 209.685 71.0037C209.824 70.9364 209.879 70.8633 209.855 70.6885C209.814 70.1341 209.956 69.6309 210.25 69.2088C210.374 69.025 210.353 68.8953 210.261 68.7222C209.82 67.8645 209.362 66.9992 208.956 66.1246C208.523 65.2162 208.074 64.5952 207.348 63.9679C207.059 63.7042 206.761 63.4913 206.465 63.2464ZM216.037 58.6625C216.014 58.6737 215.997 58.6662 215.974 58.6774C215.944 58.8164 215.913 58.9553 215.894 59.0887C215.735 60.0973 215.593 60.8955 215.824 61.8861C216.124 63.1381 216.448 64.3789 216.76 65.6252C216.795 65.7944 216.869 65.8829 217.042 65.9077C217.518 65.9726 217.928 66.1934 218.259 66.6074C218.412 66.7975 218.559 66.7885 218.836 66.5768C219.007 66.4475 218.879 66.3232 218.835 66.2048C217.907 63.7038 217.053 61.4004 216.12 58.8863C216.102 58.8017 216.073 58.7227 216.037 58.6625ZM212.668 72.7746C212.605 72.7895 212.53 72.81 212.439 72.8229C211.64 72.9921 210.921 72.859 210.371 72.1157C210.292 72.014 210.227 71.9838 210.127 72.0475C210.046 72.0867 209.965 72.126 209.883 72.1653C209.767 72.2214 209.741 72.2965 209.789 72.4281C210.156 73.4153 210.527 74.4157 210.905 75.3973C210.924 75.4499 211.061 75.5235 211.107 75.5011C211.739 75.2113 212.376 74.9027 212.998 74.5865C213.044 74.5641 213.103 74.427 213.095 74.3688C212.956 73.8462 212.817 73.3235 212.668 72.7746ZM217.632 70.3731C217.874 70.8772 218.117 71.3493 218.354 71.8402C218.419 71.9794 218.512 71.9345 218.605 71.8896C219.196 71.6035 219.771 71.3098 220.368 71.0368C220.553 70.947 220.582 70.84 220.497 70.6481C220.158 69.7719 219.843 68.8844 219.511 67.9893C219.359 67.5812 219.359 67.5812 219 67.7552C218.896 67.8057 218.803 67.8506 218.822 68.0122C218.901 68.8898 218.559 69.5523 217.992 70.0902C217.867 70.197 217.733 70.2775 217.632 70.3731ZM213.796 67.8507C213.847 69.0214 213.889 70.1657 213.732 71.3283C214.194 71.4308 214.628 71.5314 215.069 71.6131C215.13 71.6302 215.236 71.5477 215.279 71.4802C215.503 71.1237 215.693 70.7521 215.916 70.3956C215.985 70.2849 215.984 70.2079 215.882 70.1175C215.155 69.5222 214.542 68.7937 213.955 68.0221C213.896 67.9731 213.843 67.9053 213.796 67.8507ZM214.678 74.9848C214.885 75.6917 216.031 76.752 216.477 76.738C216.484 76.7192 216.491 76.7004 216.491 76.7004C216.237 76.016 215.995 75.3259 215.734 74.6602C215.714 74.6076 215.604 74.5679 215.553 74.5771C215.253 74.6911 214.968 74.8445 214.678 74.9848ZM217.461 76.293C217.838 75.7227 217.895 74.0337 217.619 73.5465C217.364 73.6699 217.085 73.8046 216.83 73.928C216.679 74.0009 216.657 74.0892 216.716 74.2472C216.921 74.8 217.126 75.3528 217.331 75.9057C217.364 76.0297 217.408 76.1482 217.461 76.293ZM214.698 73.7486C214.849 73.6756 215.016 73.6102 215.157 73.511C215.203 73.4885 215.257 73.3383 215.231 73.3044C214.946 72.759 214.436 72.4159 213.9 72.5199C213.786 72.5441 213.738 72.5985 213.759 72.7281C213.844 73.106 213.941 73.4782 214.031 73.8692C214.069 74.0064 214.158 74.0254 214.262 73.9749C214.396 73.8944 214.547 73.8215 214.698 73.7486ZM216.832 72.7162C216.971 72.6488 217.099 72.5871 217.238 72.5198C217.382 72.4656 217.439 72.3605 217.352 72.2006C217.195 71.8884 217.038 71.5762 216.87 71.2695C216.788 71.1228 216.704 71.117 216.584 71.237C216.197 71.595 216.003 72.3254 216.182 72.8444C216.202 72.897 216.317 72.9499 216.368 72.9406C216.535 72.8752 216.681 72.7891 216.832 72.7162Z" fill="#FFD500"/>
<path d="M434.5 471C477.766 466.053 546.917 477.541 486.162 562.921C425.854 647.673 414.179 700.963 446.556 690.478C446.79 690.391 447.032 690.31 447.284 690.234C447.039 690.319 446.797 690.4 446.556 690.478C437.556 693.841 441.672 705.978 437.023 710.9C400.984 716.63 400.313 668.192 480.806 561.929C500.178 533.677 513.876 478.537 437.5 481.5L434.5 471Z" fill="#FFD500"/>
<path d="M429.5 455C478.388 443.833 530.059 437.389 475.722 538.571C421.942 638.716 478.99 631.224 515.255 614.581C515.599 614.403 515.972 614.23 516.376 614.061C516.005 614.235 515.631 614.409 515.255 614.581C506.326 619.194 517.142 626.522 512.743 632.437C472.315 643.493 407.042 640.124 469.377 538.205C486.515 504.821 516 449.5 433 462.5L429.5 455Z" fill="#005BBB"/>
</g>
</g>
<defs>
<radialGradient id="paint0_radial_2_17" cx="0" cy="0" r="1" gradientUnits="userSpaceOnUse" gradientTransform="translate(31.5961 44.505) rotate(90) scale(44.505 31.5961)">
<stop stop-color="#FFBBBB"/>
<stop offset="1" stop-color="#FFBBBB" stop-opacity="0"/>
</radialGradient>
<radialGradient id="paint1_radial_2_17" cx="0" cy="0" r="1" gradientUnits="userSpaceOnUse" gradientTransform="translate(31.5961 44.505) rotate(90) scale(44.505 31.5961)">
<stop stop-color="#FFBBBB"/>
<stop offset="1" stop-color="#FFBBBB" stop-opacity="0"/>
</radialGradient>
<clipPath id="clip0_2_17">
<rect width="668" height="720" fill="white"/>
</clipPath>
<clipPath id="clip1_2_17">
<rect width="609" height="703" fill="white" transform="translate(60 17)"/>
</clipPath>
</defs>
</svg>
