<?xml version="1.0" standalone="no"?>
<!DOCTYPE svg PUBLIC "-//W3C//DTD SVG 20010904//EN"
 "http://www.w3.org/TR/2001/REC-SVG-20010904/DTD/svg10.dtd">
<svg version="1.0" xmlns="http://www.w3.org/2000/svg"
 width="864.000000pt" height="864.000000pt" viewBox="0 0 864.000000 864.000000"
 preserveAspectRatio="xMidYMid meet">
<metadata>
Created by potrace 1.14, written by Peter Selinger 2001-2017
</metadata>
<g transform="translate(0.000000,864.000000) scale(0.100000,-0.100000)"
fill="#000000" stroke="none">
<path d="M4086 8483 c-1 -2 -42 -5 -90 -8 -48 -2 -90 -6 -94 -9 -4 -2 -36 -7
-72 -10 -71 -8 -69 -7 -155 -25 -129 -26 -234 -54 -335 -87 -128 -43 -366
-159 -437 -214 -29 -22 -53 -38 -53 -35 0 16 -174 -162 -215 -220 -66 -93
-135 -238 -149 -311 -2 -16 -7 -40 -11 -54 -14 -62 -21 -215 -13 -293 4 -36 3
-38 -41 -60 -43 -21 -52 -26 -83 -53 -38 -32 -81 -90 -110 -146 -69 -134 -83
-193 -83 -358 0 -117 3 -143 24 -200 38 -103 105 -187 168 -211 23 -9 23 -9
-29 -79 -29 -38 -56 -70 -60 -70 -5 0 -8 -4 -8 -9 0 -5 -21 -31 -47 -59 -90
-93 -130 -137 -173 -187 -23 -27 -52 -61 -64 -75 -11 -14 -28 -34 -36 -46 -38
-55 -76 -111 -88 -134 -28 -50 -56 -105 -57 -110 -1 -3 -8 -18 -15 -35 -7 -16
-14 -32 -15 -35 0 -3 -11 -34 -23 -70 -22 -67 -41 -144 -48 -193 -2 -16 -6
-32 -8 -35 -5 -8 -18 -145 -20 -209 -1 -23 -5 -45 -9 -49 -4 -4 -2 -13 4 -20
7 -8 7 -14 0 -18 -6 -4 -7 -15 -1 -30 4 -12 4 -29 0 -36 -5 -8 -6 -18 -3 -23
8 -14 10 -96 1 -110 -4 -6 -3 -16 2 -22 5 -6 11 -42 14 -80 2 -39 5 -70 6 -70
1 0 4 -20 6 -44 3 -25 10 -54 16 -64 8 -15 7 -18 -4 -11 -10 6 -11 5 -1 -7 7
-9 14 -32 15 -52 2 -20 7 -37 11 -37 5 0 7 -8 5 -17 -1 -10 1 -24 5 -30 5 -7
5 -13 1 -13 -3 0 -1 -7 6 -15 7 -8 10 -15 7 -15 -3 0 3 -26 14 -57 11 -32 20
-60 21 -63 1 -9 10 -34 20 -62 5 -15 7 -31 4 -36 -3 -6 1 -13 10 -16 8 -3 13
-9 11 -13 -3 -5 0 -19 6 -33 5 -14 11 -29 13 -35 1 -5 21 -55 44 -110 22 -55
41 -102 42 -105 0 -3 5 -16 10 -30 5 -14 15 -41 22 -60 7 -19 30 -79 51 -133
20 -55 38 -105 39 -113 1 -7 5 -17 9 -20 4 -4 7 -18 7 -30 0 -13 5 -26 10 -29
6 -4 8 -10 5 -15 -3 -5 -1 -11 5 -15 6 -4 8 -11 4 -16 -3 -5 -2 -15 3 -22 6
-7 16 -39 23 -72 8 -33 15 -64 16 -70 39 -175 49 -275 48 -500 0 -219 -8 -315
-34 -445 -6 -30 -13 -71 -16 -90 -8 -45 -12 -65 -14 -65 -1 0 -3 -12 -5 -27
-2 -15 -8 -42 -14 -60 -14 -41 -61 -242 -67 -283 -3 -16 -9 -48 -14 -70 -10
-43 -29 -152 -35 -200 -2 -16 -4 -30 -5 -30 -1 0 -3 -16 -5 -35 -3 -35 -8 -72
-19 -140 -7 -43 -15 -110 -21 -170 -3 -25 -7 -70 -11 -100 -3 -30 -7 -71 -9
-90 -2 -19 -6 -62 -10 -95 -4 -33 -8 -87 -11 -120 -2 -33 -6 -78 -8 -100 -3
-22 -8 -83 -12 -135 -3 -52 -8 -97 -10 -100 -1 -3 1 -11 5 -18 6 -11 28 -14
71 -11 8 0 41 0 73 -1 32 -2 60 0 63 3 3 3 19 1 35 -3 17 -5 31 -5 35 1 4 6
11 6 20 -2 10 -8 14 -8 14 0 0 7 8 8 23 2 12 -5 30 -5 41 -2 10 4 39 4 65 1
25 -3 58 -3 71 0 14 4 37 3 52 -1 16 -4 30 -3 34 2 4 6 11 6 20 -2 8 -6 14 -8
14 -3 0 5 21 8 47 7 124 -5 164 -5 169 0 3 3 19 1 35 -3 17 -5 31 -5 35 1 4 6
11 6 20 -2 10 -8 14 -8 14 0 0 7 8 8 23 2 12 -5 30 -5 41 -2 10 4 39 4 65 1
25 -3 58 -3 71 0 14 4 37 3 52 -1 16 -4 30 -3 34 2 4 6 11 6 20 -2 8 -6 14 -8
14 -3 0 5 36 7 81 4 44 -3 86 -2 91 1 6 4 24 3 39 -1 16 -5 31 -5 34 0 3 5 18
5 34 0 15 -4 34 -4 41 0 7 4 24 5 39 1 14 -4 37 -6 51 -4 60 6 88 6 98 -1 6
-3 14 -2 17 4 5 8 11 7 21 -1 8 -6 14 -7 14 -2 0 5 20 7 48 3 26 -3 59 -3 72
0 14 4 37 3 52 -1 16 -4 30 -3 34 2 4 6 11 6 20 -2 8 -6 14 -7 14 -2 0 5 20 7
48 3 26 -3 61 -3 77 0 17 4 40 3 52 -1 13 -5 25 -4 28 2 4 5 11 6 17 3 13 -8
107 -9 114 -1 3 3 19 1 35 -3 16 -5 31 -5 34 0 3 5 18 5 34 0 15 -4 34 -4 41
0 7 4 26 4 41 0 16 -5 31 -5 33 -1 3 4 27 5 53 1 27 -3 60 -3 73 0 14 4 37 3
52 -1 16 -4 30 -3 34 2 4 6 11 6 20 -2 10 -8 14 -8 14 0 0 7 8 8 23 2 12 -5
30 -5 41 -2 10 4 39 4 65 1 25 -3 58 -3 71 0 14 4 37 3 52 -1 16 -4 30 -3 34
2 4 6 11 6 20 -2 10 -8 14 -8 14 0 0 7 8 8 23 2 12 -5 30 -5 41 -2 10 4 39 4
65 1 25 -3 58 -3 71 0 14 4 37 3 52 -1 16 -4 30 -3 34 2 4 6 11 6 20 -2 10 -8
14 -8 14 0 0 7 8 8 23 2 12 -5 30 -5 41 -2 10 4 39 4 65 1 25 -3 58 -3 71 0
14 4 37 3 52 -1 16 -4 30 -3 34 2 4 6 11 6 20 -2 8 -6 14 -8 14 -3 0 5 36 7
81 4 44 -3 86 -2 91 1 6 4 24 3 39 -1 16 -5 31 -5 34 0 3 5 18 5 34 0 15 -4
34 -4 41 0 7 4 24 5 39 1 14 -4 37 -6 51 -4 60 6 88 6 98 -1 6 -3 14 -2 17 4
5 8 11 7 21 -1 11 -9 14 -9 14 0 0 7 5 9 12 5 12 -8 78 -8 86 0 5 6 9 78 17
296 3 85 8 234 11 330 4 96 6 213 6 260 -1 115 -10 484 -13 488 -5 6 -4 31 2
65 3 20 3 40 -2 43 -4 2 -5 15 0 27 7 21 5 86 -3 94 -2 3 0 18 4 34 6 20 5 29
-3 29 -8 0 -8 3 -2 8 6 4 10 50 11 102 1 105 12 301 19 340 3 14 7 44 9 65 8
70 18 128 33 200 8 39 16 79 19 90 2 11 11 45 19 75 8 30 18 66 21 80 5 25 58
184 77 230 6 14 11 30 12 35 2 6 17 42 35 80 17 39 35 79 40 90 5 11 41 88 81
170 104 219 133 280 171 375 32 78 77 204 82 233 2 7 8 30 14 52 6 22 13 51
16 65 38 213 37 209 41 277 1 34 5 65 7 70 10 19 -5 424 -17 443 -2 3 -6 23
-9 45 -31 195 -141 439 -276 609 -60 75 -129 148 -323 341 -122 121 -233 234
-247 250 -57 68 -96 122 -109 148 -8 15 -18 27 -21 27 -4 0 -13 14 -21 31 -12
30 -11 33 12 51 39 31 63 54 81 77 24 28 67 132 74 177 3 20 7 46 10 58 8 42
6 142 -5 206 -26 152 -80 268 -167 357 -34 35 -69 63 -78 63 -16 0 -18 10 -18
90 0 61 -19 182 -41 255 -11 39 -20 73 -19 78 1 4 -2 7 -8 7 -5 0 -10 6 -10
13 0 15 -68 149 -80 157 -4 3 -11 12 -16 22 -9 16 -110 134 -129 150 -5 5 -28
24 -50 43 -37 32 -125 94 -200 141 -44 27 -191 97 -255 121 -102 39 -92 35
-130 44 -8 2 -17 6 -20 9 -6 7 -103 33 -170 46 -14 3 -43 10 -65 16 -22 5 -49
12 -60 13 -11 2 -51 8 -90 15 -98 15 -128 19 -225 26 -89 7 -289 12 -294 7z"/>
</g>
</svg>
