<svg xmlns="http://www.w3.org/2000/svg" width="26" height="26" fill="none" viewBox="0 0 32 32">
  <path fill="currentColor" d="M27.656 17.394c-.904.24-1.834.361-2.77.361-2.846 0-5.52-1.107-7.527-3.115a10.7 10.7 0 0 1-2.752-10.297 1.333 1.333 0 0 0-1.634-1.63 13.352 13.352 0 0 0-5.985 3.442c-5.197 5.197-5.197 13.657 0 18.857a13.249 13.249 0 0 0 9.43 3.907 13.24 13.24 0 0 0 9.426-3.905 13.344 13.344 0 0 0 3.444-5.988 1.335 1.335 0 0 0-1.632-1.632Zm-3.696 5.734a10.597 10.597 0 0 1-7.541 3.124 10.605 10.605 0 0 1-7.544-3.125c-4.158-4.159-4.158-10.927 0-15.085.803-.803 1.73-1.47 2.746-1.978a13.37 13.37 0 0 0 3.854 10.464 13.295 13.295 0 0 0 10.464 3.855 10.712 10.712 0 0 1-1.979 2.745Z"/>
</svg>
