<svg xmlns="http://www.w3.org/2000/svg" width="16" height="16" fill="none" viewBox="0 0 16 16">
  <path stroke="currentColor" stroke-linecap="round" stroke-linejoin="round" stroke-width="1.3" d="m1.667 14.333 3.7-1.423c.236-.091.354-.136.465-.196.098-.053.192-.114.28-.182.1-.077.189-.167.368-.346L14 4.666A1.886 1.886 0 1 0 11.333 2l-7.52 7.52c-.179.179-.268.268-.345.368-.069.088-.13.181-.183.28-.059.11-.104.229-.195.465l-1.423 3.7Zm0 0 1.372-3.568c.098-.255.147-.382.231-.44a.333.333 0 0 1 .253-.054c.1.019.197.115.39.309l1.507 1.506c.193.193.29.29.309.39a.333.333 0 0 1-.054.253c-.058.085-.186.134-.441.232l-3.567 1.372Z"/>
</svg>
