<svg xmlns="http://www.w3.org/2000/svg" width="1280" height="1232"><path fill="none" d="M-1-1h582v402H-1z"/><path fill="#9e9e9e" d="M1021.5 1c-34.8 3.5-54.1 10.7-85.5 31.6-19.8 13.3-24.1 16.6-33.2 25.2-24.4 23.3-54.4 68.1-71 105.9C818.1 195 807 237 804 268.5c-1.4 15-1.3 27.3.6 65.9 1.7 34.7 1.5 49.9-1 70.6-.9 6.9-2.7 22.9-4.1 35.6-3.8 35-7.1 49.5-15.3 66.3-7.1 14.6-24.6 29-38.9 32-2.9.6-19.6 1.3-37 1.6-40.9.8-100.9 5.1-129.3 9.5-16.5 2.5-24.5 4.4-56 13.5-64.6 18.6-92.2 24.5-123.5 26.5-42.9 2.7-72.2 8.7-93 19-15.4 7.6-19.3 8.5-31 6.9-9.4-1.2-33.1-.7-53.5 1.2-13 1.2-20.1 3.3-40.5 11.9-16.8 7.1-49.9 18.2-74.5 24.9-18.1 5-23.8 7-31.9 11.1-7.8 3.9-16.9 12.7-20.5 19.8L52 690l2.2.5c16.3 3.7 55 9.5 63.2 9.5 3.9 0 16.5-.9 28.1-2 27.5-2.6 53.3-2.4 48.8.3-6.6 4.1-24.5 7-53.3 8.7-49.6 2.9-106.6 11.3-119.5 17.5-5.9 2.8-9.3 6.3-16.4 16.3l-5.2 7.3 5.8 2.7c5.1 2.3 7.5 2.7 19.8 3.3 13.7.7 18.5 1.4 18.5 2.8s-4.9 5.4-19.1 15.5c-7.9 5.6-14.4 10.7-14.7 11.4-.2.6.7 1.7 2 2.2 3.6 1.7 14-.9 30.3-7.3 7.7-3.1 14.2-5.4 14.4-5.2.2.3-5.3 9-12.3 19.5C31.9 812.3 27 820.7 27 823.5c0 .8 1.1 2 2.5 2.5 3 1.1 6.5.1 24.1-6.8 7.1-2.8 20.3-8 29.4-11.4l16.5-6.3 18.5.1c28.4.1 37.4 2.2 64.6 15.4 14.1 6.8 28.8 17.4 38.8 28 13.7 14.5 21.3 26.6 31.7 50.2 7 16 23.5 43 35.7 58.7 8.3 10.7 23.2 25.6 34.2 34.4 21 16.8 65.8 46.1 86.3 56.6l10.6 5.5.7 6.5c1.1 10-1 24.7-6.6 46.5-5.3 20.8-6.8 24.4-16.1 39.6-8.4 13.8-10.2 18.9-9.7 27.5.4 6.1 1.1 8 4.9 14.3 6.2 10.3 6.7 10.5 13.8 3.9 7-6.5 10.8-8.3 18.2-8.9l5.6-.4 2.4 4.5c3.9 7.4 10.6 15.9 14.6 18.5 2.1 1.4 8.4 4.3 14.1 6.6 8.3 3.3 12.6 4.4 22.5 5.5 23.3 2.8 57.9 1.6 88.6-3 7.5-1.1 11.5-2.4 21-6.9 11.2-5.4 14.2-6.3 17.4-5 .9.3 3.2 5.2 5.2 10.9l3.7 10.4 7 1.6c31.2 7.1 53.3 8.9 105.8 8.9 24.5-.1 49.7-.6 56.1-1.1 12.3-1.1 16.8-2.7 24.2-8.5 2.8-2.3 5.1-3.1 9.6-3.5 5.3-.5 6.7-.2 14.8 3.6 9.5 4.3 11.5 4.7 15.9 3.1 2.5-1 2.6-1.4 2.2-6-.3-3.3-1.9-7.3-4.9-12.6-6.2-11.1-10.9-15.5-19.8-19-5.8-2.3-8.7-4.3-14.1-9.6-5.9-5.8-7.7-6.9-13.9-8.8-6.6-2-8.7-2.2-27.4-1.7-16.3.4-21.8.9-28.2 2.6-9.6 2.5-21.8 2.7-32.5.6-9.4-1.9-12.3-4.7-14-13.2-3.3-16.8-5.3-20.6-18.1-33.8l-8.9-9.1-.6-7c-.3-3.8.1-16.5 1-28.3 1.8-24.2 2-39.2.6-49.9-.9-6.8-.8-7.6 1.4-11.1 2-3.2 4.2-4.6 15.2-9.5 16.5-7.4 24.5-12.2 42.9-25.7 56.6-41.5 59.9-43.4 112-61.9 57.1-20.2 78.4-31.4 103.5-54.2 37.5-34.2 62-74.3 71.2-116.8 2-9.4 2.2-13.3 2.3-36.5 0-22.9-.3-27.5-2.3-38.8-3.7-20.3-8.1-37.1-22.2-83.7-43.8-144.5-47.4-157.9-52.7-193.5-2.6-17.5-2.6-69.2 0-85.5 4.2-26.7 9.9-51.3 14.2-61.5 2.3-5.7 7.4-12.5 15.4-20.9 14.1-14.5 18.5-16.4 48.6-20.1 29-3.7 38.2-6.3 66.4-18.8 13-5.7 14.1-6 24.6-6.8 6.1-.4 19.8-2.2 30.5-4 25.7-4.3 42.5-4.4 67.5-.4 25.4 3.9 37.7 3.5 46.9-1.8 5.7-3.2 6.2-4.6 4.3-10.3l-1.7-4.9 2.7-2c6.2-4.6 11.7-10.2 12.9-13.2 4.5-10.6-2.7-23.4-18.8-33.6-2.9-1.9-20.1-10.9-38.3-20-30.2-15.2-34.3-17.6-47.7-27.6-18.6-14.1-20.1-15.9-22.9-27.8-1.2-5.2-3.1-10.8-4.3-12.6-4-5.9-22.5-18.6-32-21.9-5.6-1.9-20.8-2.5-26.2-.9-2 .6-5.6.4-10.5-.5-9.2-1.7-44.3-2.6-56.4-1.4zM603.3 1057.8c.7 10.6 2.3 16.1 8.7 30.3 7.5 16.7 7.6 18.1 3.6 50.2-1.9 15.3-3.7 28.1-4 28.4-.3.3-3.2-.6-6.3-2-9.5-4.2-17.1-6-22.2-5.3-7.1 1-39.8.6-46.9-.5-9.2-1.4-15.6-4.1-29.4-12.4l-12.3-7.5.3-6.4c.3-5.9 0-7.4-3.7-15.4-4.8-10.3-5-12.9-2-26.2 1.5-7 2.1-13.4 2.2-24.2.2-17.4-1.7-16.5 16.7-7.7 23.3 11 35.2 10.6 70-2.4 17.6-6.5 23-8.5 24.1-8.6.3-.1.9 4.3 1.2 9.7z"/><text xml:space="preserve" x="429.119" y="733.794" fill="#fff" stroke="#000" stroke-opacity="null" stroke-width="0" font-family="Helvetica, Arial, sans-serif" font-size="150">404</text><text xml:space="preserve" x="220.296" y="798.499" fill="#fff" stroke="#000" stroke-opacity="null" stroke-width="0" font-family="Helvetica, Arial, sans-serif" font-size="48">Whoops, something went wrong :(</text><path fill="#fff" d="M1116.42 116.37c-6.32-2.641-10.85-11.037-9.82-18.2.649-4.516 14.345-31.936 15.54-31.113.391.268 3.865 6.66 7.72 14.205 6.177 12.086 7.01 14.34 7.01 18.946 0 9.335-6.715 16.981-14.778 16.827-2.352-.044-4.905-.343-5.672-.664zm6.332-4.694c.21-1.209-.28-1.798-1.49-1.798-2.761 0-6.59-3.89-7.446-7.563-.912-3.919-3.332-4.385-3.69-.71-.688 7.077 11.466 16.773 12.626 10.07z"/></svg>