<svg xmlns="http://www.w3.org/2000/svg" width="26" height="26" fill="none" viewBox="0 0 32 32">
  <path fill="currentColor" d="M9.324 16A6.683 6.683 0 0 0 16 22.676 6.683 6.683 0 0 0 22.676 16 6.683 6.683 0 0 0 16 9.324 6.683 6.683 0 0 0 9.324 16ZM16 11.991c2.21 0 4.01 1.799 4.01 4.01 0 2.21-1.8 4.009-4.01 4.009A4.014 4.014 0 0 1 11.99 16c0-2.21 1.8-4.009 4.01-4.009Zm-1.336 13.343h2.667v4h-2.667v-4Zm0-22.667h2.667v4h-2.667v-4Zm-12 12h4v2.667h-4v-2.667Zm22.667 0h4v2.667h-4v-2.667ZM5.625 24.484l2.827-2.829 1.887 1.885-2.827 2.83-1.887-1.886ZM21.653 8.46l2.83-2.83 1.885 1.886-2.83 2.83-1.885-1.886ZM8.456 10.346l-2.83-2.83 1.887-1.885 2.827 2.83-1.884 1.885Zm17.912 14.14-1.885 1.885-2.83-2.83 1.886-1.885 2.829 2.83Z"/>
</svg>
